M48
;GenerationSoftware,Autodesk,EAGLE,9.1.3*%
;CreationDate,2018-09-11T05:34:09Z*%
FMAT,2
ICI,OFF
METRIC,TZ,000.000
T6C0.813
T5C0.900
T4C1.000
T3C1.016
T2C1.118
T1C3.200
%
G90
M71
T1
X25000Y46253
T2
X10160Y35560
X10160Y25400
T3
X15240Y10160
X15240Y12700
X15240Y15240
X15240Y17780
X15240Y20320
X15240Y22860
X15240Y25400
X15240Y27940
X38100Y10160
X38100Y12700
X38100Y15240
X38100Y17780
X38100Y25400
X38100Y27940
X38100Y22860
X38100Y20320
T4
X2540Y16510
X5080Y16510
X2540Y5080
X5080Y5080
X43815Y30480
X46355Y30480
T5
X5080Y24130
X5080Y36830
X8255Y43180
X18415Y43180
X46355Y17780
X46355Y7620
T6
X42545Y45085
X44450Y43815
X42545Y42545
M30